<?xml version="1.0" encoding="UTF-8" standalone="no"?><svg xmlns="http://www.w3.org/2000/svg" xmlns:xlink="http://www.w3.org/1999/xlink" contentScriptType="application/ecmascript" contentStyleType="text/css" height="834px" preserveAspectRatio="none" style="width:906px;height:834px;" version="1.1" viewBox="0 0 906 834" width="906px" zoomAndPan="magnify"><defs><filter height="300%" id="f9q3fncneljj3" width="300%" x="-1" y="-1"><feGaussianBlur result="blurOut" stdDeviation="2.0"/><feColorMatrix in="blurOut" result="blurOut2" type="matrix" values="0 0 0 0 0 0 0 0 0 0 0 0 0 0 0 0 0 0 .4 0"/><feOffset dx="4.0" dy="4.0" in="blurOut2" result="blurOut3"/><feBlend in="SourceGraphic" in2="blurOut3" mode="normal"/></filter></defs><g><rect fill="#FEFECE" filter="url(#f9q3fncneljj3)" height="40.2609" rx="12.5" ry="12.5" style="stroke: #A80036; stroke-width: 1.5;" width="64" x="10" y="395.9565"/><text fill="#000000" font-family="sans-serif" font-size="14" lengthAdjust="spacingAndGlyphs" textLength="44" x="20" y="422.1876">docker</text><rect fill="#FEFECE" filter="url(#f9q3fncneljj3)" height="40.2609" rx="12.5" ry="12.5" style="stroke: #A80036; stroke-width: 1.5;" width="95" x="124" y="140.5217"/><text fill="#000000" font-family="sans-serif" font-size="14" lengthAdjust="spacingAndGlyphs" textLength="75" x="134" y="166.7528">docker 操作</text><rect fill="#FEFECE" filter="url(#f9q3fncneljj3)" height="40.2609" rx="12.5" ry="12.5" style="stroke: #A80036; stroke-width: 1.5;" width="63" x="269" y="20"/><text fill="#000000" font-family="sans-serif" font-size="14" lengthAdjust="spacingAndGlyphs" textLength="43" x="279" y="46.2311">search</text><text fill="#000000" font-family="sans-serif" font-size="14" lengthAdjust="spacingAndGlyphs" textLength="177" x="385" y="35.1006">docker search 命令进行查找</text><path d="M332,40.1304 L342,40.1304 C357,40.1304 357,29 372,29 L382,29 " fill="none" style="stroke: #A80036; stroke-width: 1.0;"/><text fill="#000000" font-family="sans-serif" font-size="14" lengthAdjust="spacingAndGlyphs" textLength="256" x="385" y="57.3615">docker + 镜像名字搜索对应的docker hub</text><path d="M332,40.1304 L342,40.1304 C357,40.1304 357,51.2609 372,51.2609 L382,51.2609 " fill="none" style="stroke: #A80036; stroke-width: 1.0;"/><path d="M219,160.6522 L229,160.6522 C244,160.6522 244,40.1304 259,40.1304 L269,40.1304 " fill="none" style="stroke: #A80036; stroke-width: 1.0;"/><rect fill="#FEFECE" filter="url(#f9q3fncneljj3)" height="40.2609" rx="12.5" ry="12.5" style="stroke: #A80036; stroke-width: 1.5;" width="43" x="269" y="80.2609"/><text fill="#000000" font-family="sans-serif" font-size="14" lengthAdjust="spacingAndGlyphs" textLength="23" x="279" y="106.4919">pull</text><text fill="#000000" font-family="sans-serif" font-size="14" lengthAdjust="spacingAndGlyphs" textLength="201" x="365" y="95.3615">docker pull 拉对应的镜像到本地</text><path d="M312,100.3913 L322,100.3913 C337,100.3913 337,89.2609 352,89.2609 L362,89.2609 " fill="none" style="stroke: #A80036; stroke-width: 1.0;"/><text fill="#000000" font-family="sans-serif" font-size="14" lengthAdjust="spacingAndGlyphs" textLength="70" x="365" y="117.6224">注意版本号</text><path d="M312,100.3913 L322,100.3913 C337,100.3913 337,111.5217 352,111.5217 L362,111.5217 " fill="none" style="stroke: #A80036; stroke-width: 1.0;"/><path d="M219,160.6522 L229,160.6522 C244,160.6522 244,100.3913 259,100.3913 L269,100.3913 " fill="none" style="stroke: #A80036; stroke-width: 1.0;"/><rect fill="#FEFECE" filter="url(#f9q3fncneljj3)" height="40.2609" rx="12.5" ry="12.5" style="stroke: #A80036; stroke-width: 1.5;" width="41" x="269" y="140.5217"/><text fill="#000000" font-family="sans-serif" font-size="14" lengthAdjust="spacingAndGlyphs" textLength="21" x="279" y="166.7528">run</text><rect fill="#FEFECE" filter="url(#f9q3fncneljj3)" height="40.2609" rx="12.5" ry="12.5" style="stroke: #A80036; stroke-width: 1.5;" width="62" x="360" y="140.5217"/><text fill="#000000" font-family="sans-serif" font-size="14" lengthAdjust="spacingAndGlyphs" textLength="42" x="370" y="166.7528">不退出</text><text fill="#000000" font-family="sans-serif" font-size="14" lengthAdjust="spacingAndGlyphs" textLength="154" x="475" y="166.7528">docker run -dit &lt;image&gt;</text><path d="M422,160.6522 L432,160.6522 C447,160.6522 447,160.6522 462,160.6522 L472,160.6522 " fill="none" style="stroke: #A80036; stroke-width: 1.0;"/><path d="M310,160.6522 L320,160.6522 C335,160.6522 335,160.6522 350,160.6522 L360,160.6522 " fill="none" style="stroke: #A80036; stroke-width: 1.0;"/><path d="M219,160.6522 L229,160.6522 C244,160.6522 244,160.6522 259,160.6522 L269,160.6522 " fill="none" style="stroke: #A80036; stroke-width: 1.0;"/><rect fill="#FEFECE" filter="url(#f9q3fncneljj3)" height="40.2609" rx="12.5" ry="12.5" style="stroke: #A80036; stroke-width: 1.5;" width="48" x="269" y="230.913"/><text fill="#000000" font-family="sans-serif" font-size="14" lengthAdjust="spacingAndGlyphs" textLength="28" x="279" y="257.1441">删除</text><rect fill="#FEFECE" filter="url(#f9q3fncneljj3)" height="40.2609" rx="12.5" ry="12.5" style="stroke: #A80036; stroke-width: 1.5;" width="76" x="367" y="200.7826"/><text fill="#000000" font-family="sans-serif" font-size="14" lengthAdjust="spacingAndGlyphs" textLength="56" x="377" y="227.0137">删除容器</text><text fill="#000000" font-family="sans-serif" font-size="14" lengthAdjust="spacingAndGlyphs" textLength="228" x="496" y="227.0137">docker rm [docker id | docker name]</text><path d="M443,220.913 L453,220.913 C468,220.913 468,220.913 483,220.913 L493,220.913 " fill="none" style="stroke: #A80036; stroke-width: 1.0;"/><path d="M317,251.0435 L327,251.0435 C342,251.0435 342,220.913 357,220.913 L367,220.913 " fill="none" style="stroke: #A80036; stroke-width: 1.0;"/><rect fill="#FEFECE" filter="url(#f9q3fncneljj3)" height="40.2609" rx="12.5" ry="12.5" style="stroke: #A80036; stroke-width: 1.5;" width="77" x="367" y="261.0435"/><text fill="#000000" font-family="sans-serif" font-size="14" lengthAdjust="spacingAndGlyphs" textLength="57" x="377" y="287.2745">删除镜像</text><text fill="#000000" font-family="sans-serif" font-size="14" lengthAdjust="spacingAndGlyphs" textLength="237" x="497" y="287.2745">docker rmi [docker image name: tag]</text><path d="M444,281.1739 L454,281.1739 C469,281.1739 469,281.1739 484,281.1739 L494,281.1739 " fill="none" style="stroke: #A80036; stroke-width: 1.0;"/><path d="M317,251.0435 L327,251.0435 C342,251.0435 342,281.1739 357,281.1739 L367,281.1739 " fill="none" style="stroke: #A80036; stroke-width: 1.0;"/><path d="M219,160.6522 L229,160.6522 C244,160.6522 244,251.0435 259,251.0435 L269,251.0435 " fill="none" style="stroke: #A80036; stroke-width: 1.0;"/><path d="M74,416.0869 L84,416.0869 C99,416.0869 99,160.6522 114,160.6522 L124,160.6522 " fill="none" style="stroke: #A80036; stroke-width: 1.0;"/><rect fill="#FEFECE" filter="url(#f9q3fncneljj3)" height="40.2609" rx="12.5" ry="12.5" style="stroke: #A80036; stroke-width: 1.5;" width="95" x="124" y="441.826"/><text fill="#000000" font-family="sans-serif" font-size="14" lengthAdjust="spacingAndGlyphs" textLength="75" x="134" y="468.0571">docker 管理</text><rect fill="#FEFECE" filter="url(#f9q3fncneljj3)" height="40.2609" rx="12.5" ry="12.5" style="stroke: #A80036; stroke-width: 1.5;" width="115" x="269" y="321.3043"/><text fill="#000000" font-family="sans-serif" font-size="14" lengthAdjust="spacingAndGlyphs" textLength="95" x="279" y="347.5354">docker system</text><path d="M219,461.9565 L229,461.9565 C244,461.9565 244,341.4348 259,341.4348 L269,341.4348 " fill="none" style="stroke: #A80036; stroke-width: 1.0;"/><rect fill="#FEFECE" filter="url(#f9q3fncneljj3)" height="40.2609" rx="12.5" ry="12.5" style="stroke: #A80036; stroke-width: 1.5;" width="105" x="269" y="381.5652"/><text fill="#000000" font-family="sans-serif" font-size="14" lengthAdjust="spacingAndGlyphs" textLength="85" x="279" y="407.7963">docker prune</text><path d="M219,461.9565 L229,461.9565 C244,461.9565 244,401.6956 259,401.6956 L269,401.6956 " fill="none" style="stroke: #A80036; stroke-width: 1.0;"/><rect fill="#FEFECE" filter="url(#f9q3fncneljj3)" height="40.2609" rx="12.5" ry="12.5" style="stroke: #A80036; stroke-width: 1.5;" width="52" x="269" y="441.826"/><text fill="#000000" font-family="sans-serif" font-size="14" lengthAdjust="spacingAndGlyphs" textLength="32" x="279" y="468.0571">start</text><path d="M219,461.9565 L229,461.9565 C244,461.9565 244,461.9565 259,461.9565 L269,461.9565 " fill="none" style="stroke: #A80036; stroke-width: 1.0;"/><rect fill="#FEFECE" filter="url(#f9q3fncneljj3)" height="40.2609" rx="12.5" ry="12.5" style="stroke: #A80036; stroke-width: 1.5;" width="65" x="269" y="502.0869"/><text fill="#000000" font-family="sans-serif" font-size="14" lengthAdjust="spacingAndGlyphs" textLength="45" x="279" y="528.318">restart</text><path d="M219,461.9565 L229,461.9565 C244,461.9565 244,522.2173 259,522.2173 L269,522.2173 " fill="none" style="stroke: #A80036; stroke-width: 1.0;"/><rect fill="#FEFECE" filter="url(#f9q3fncneljj3)" height="40.2609" rx="12.5" ry="12.5" style="stroke: #A80036; stroke-width: 1.5;" width="51" x="269" y="562.3478"/><text fill="#000000" font-family="sans-serif" font-size="14" lengthAdjust="spacingAndGlyphs" textLength="31" x="279" y="588.5789">stop</text><path d="M219,461.9565 L229,461.9565 C244,461.9565 244,582.4782 259,582.4782 L269,582.4782 " fill="none" style="stroke: #A80036; stroke-width: 1.0;"/><path d="M74,416.0869 L84,416.0869 C99,416.0869 99,461.9565 114,461.9565 L124,461.9565 " fill="none" style="stroke: #A80036; stroke-width: 1.0;"/><rect fill="#FEFECE" filter="url(#f9q3fncneljj3)" height="40.2609" rx="12.5" ry="12.5" style="stroke: #A80036; stroke-width: 1.5;" width="95" x="124" y="667.1304"/><text fill="#000000" font-family="sans-serif" font-size="14" lengthAdjust="spacingAndGlyphs" textLength="75" x="134" y="693.3615">docker 制作</text><rect fill="#FEFECE" filter="url(#f9q3fncneljj3)" height="40.2609" rx="12.5" ry="12.5" style="stroke: #A80036; stroke-width: 1.5;" width="87" x="269" y="636.9999"/><text fill="#000000" font-family="sans-serif" font-size="14" lengthAdjust="spacingAndGlyphs" textLength="67" x="279" y="663.231">docker file</text><text fill="#000000" font-family="sans-serif" font-size="14" lengthAdjust="spacingAndGlyphs" textLength="99" x="409" y="629.8397">FROM:基础镜像</text><path d="M356,657.1304 L366,657.1304 C381,657.1304 381,623.7391 396,623.7391 L406,623.7391 " fill="none" style="stroke: #A80036; stroke-width: 1.0;"/><text fill="#000000" font-family="sans-serif" font-size="14" lengthAdjust="spacingAndGlyphs" textLength="92" x="409" y="652.1006">RUN: 运行命令</text><path d="M356,657.1304 L366,657.1304 C381,657.1304 381,645.9999 396,645.9999 L406,645.9999 " fill="none" style="stroke: #A80036; stroke-width: 1.0;"/><text fill="#000000" font-family="sans-serif" font-size="14" lengthAdjust="spacingAndGlyphs" textLength="100" x="409" y="674.3615">COPY: 拷贝文件</text><path d="M356,657.1304 L366,657.1304 C381,657.1304 381,668.2608 396,668.2608 L406,668.2608 " fill="none" style="stroke: #A80036; stroke-width: 1.0;"/><text fill="#000000" font-family="sans-serif" font-size="14" lengthAdjust="spacingAndGlyphs" textLength="93" x="409" y="696.6223">CMD: 启动脚本</text><path d="M356,657.1304 L366,657.1304 C381,657.1304 381,690.5217 396,690.5217 L406,690.5217 " fill="none" style="stroke: #A80036; stroke-width: 1.0;"/><path d="M219,687.2608 L229,687.2608 C244,687.2608 244,657.1304 259,657.1304 L269,657.1304 " fill="none" style="stroke: #A80036; stroke-width: 1.0;"/><rect fill="#FEFECE" filter="url(#f9q3fncneljj3)" height="40.2609" rx="12.5" ry="12.5" style="stroke: #A80036; stroke-width: 1.5;" width="99" x="269" y="711.6521"/><text fill="#000000" font-family="sans-serif" font-size="14" lengthAdjust="spacingAndGlyphs" textLength="79" x="279" y="737.8832">docker build</text><text fill="#000000" font-family="sans-serif" font-size="14" lengthAdjust="spacingAndGlyphs" textLength="473" x="421" y="726.7527">docker build -f /docker/p3_web/Dockerfile -t linchuan/p3-web /data/code</text><path d="M368,731.7825 L378,731.7825 C393,731.7825 393,720.6521 408,720.6521 L418,720.6521 " fill="none" style="stroke: #A80036; stroke-width: 1.0;"/><text fill="#000000" font-family="sans-serif" font-size="14" lengthAdjust="spacingAndGlyphs" textLength="250" x="421" y="749.0136">docker build [选项] &lt;上下文路径/URL/-&gt;</text><path d="M368,731.7825 L378,731.7825 C393,731.7825 393,742.913 408,742.913 L418,742.913 " fill="none" style="stroke: #A80036; stroke-width: 1.0;"/><path d="M219,687.2608 L229,687.2608 C244,687.2608 244,731.7825 259,731.7825 L269,731.7825 " fill="none" style="stroke: #A80036; stroke-width: 1.0;"/><path d="M74,416.0869 L84,416.0869 C99,416.0869 99,687.2608 114,687.2608 L124,687.2608 " fill="none" style="stroke: #A80036; stroke-width: 1.0;"/><rect fill="#FEFECE" filter="url(#f9q3fncneljj3)" height="40.2609" rx="12.5" ry="12.5" style="stroke: #A80036; stroke-width: 1.5;" width="95" x="124" y="771.913"/><text fill="#000000" font-family="sans-serif" font-size="14" lengthAdjust="spacingAndGlyphs" textLength="75" x="134" y="798.144">docker 编排</text><rect fill="#FEFECE" filter="url(#f9q3fncneljj3)" height="40.2609" rx="12.5" ry="12.5" style="stroke: #A80036; stroke-width: 1.5;" width="131" x="269" y="771.913"/><text fill="#000000" font-family="sans-serif" font-size="14" lengthAdjust="spacingAndGlyphs" textLength="111" x="279" y="798.144">docker-compose</text><path d="M219,792.0434 L229,792.0434 C244,792.0434 244,792.0434 259,792.0434 L269,792.0434 " fill="none" style="stroke: #A80036; stroke-width: 1.0;"/><path d="M74,416.0869 L84,416.0869 C99,416.0869 99,792.0434 114,792.0434 L124,792.0434 " fill="none" style="stroke: #A80036; stroke-width: 1.0;"/><!--MD5=[fd9838107d78da66e3f1454933dd5180]
@startmindmap
* docker
** docker 操作
*** search
****_ docker search 命令进行查找
****_ docker + 镜像名字搜索对应的docker hub
*** pull
****_ docker pull 拉对应的镜像到本地
****_ 注意版本号
*** run
**** 不退出
*****_ docker run -dit <image>
*** 删除
**** 删除容器
*****_ docker rm [docker id | docker name]
**** 删除镜像
*****_ docker rmi [docker image name: tag]
** docker 管理
*** docker system
*** docker prune
*** start
*** restart
*** stop
** docker 制作
*** docker file
****_ FROM:基础镜像
****_ RUN: 运行命令
****_ COPY: 拷贝文件
****_ CMD: 启动脚本
*** docker build
****_ docker build -f ~/docker/p3_web/Dockerfile -t linchuan/p3-web /data/code
****_ docker build [选项] <上下文路径/URL/->
** docker 编排
*** docker-compose

@endmindmap

PlantUML version 1.2020.19(Mon Oct 12 23:10:01 CST 2020)
(GPL source distribution)
Java Runtime: Java(TM) SE Runtime Environment
JVM: Java HotSpot(TM) 64-Bit Server VM
Default Encoding: UTF-8
Language: en
Country: US
--></g></svg>