<?xml version="1.0" encoding="UTF-8" standalone="no"?><svg xmlns="http://www.w3.org/2000/svg" xmlns:xlink="http://www.w3.org/1999/xlink" contentScriptType="application/ecmascript" contentStyleType="text/css" height="823px" preserveAspectRatio="none" style="width:923px;height:823px;" version="1.1" viewBox="0 0 923 823" width="923px" zoomAndPan="magnify"><defs><filter height="300%" id="f9q3fncneljj3" width="300%" x="-1" y="-1"><feGaussianBlur result="blurOut" stdDeviation="2.0"/><feColorMatrix in="blurOut" result="blurOut2" type="matrix" values="0 0 0 0 0 0 0 0 0 0 0 0 0 0 0 0 0 0 .4 0"/><feOffset dx="4.0" dy="4.0" in="blurOut2" result="blurOut3"/><feBlend in="SourceGraphic" in2="blurOut3" mode="normal"/></filter></defs><g><rect fill="#FEFECE" filter="url(#f9q3fncneljj3)" height="40.2719" rx="12.5" ry="12.5" style="stroke: #A80036; stroke-width: 1.5;" width="65" x="10" y="396.0393"/><text fill="#000000" font-family="sans-serif" font-size="14" lengthAdjust="spacingAndGlyphs" textLength="45" x="20" y="422.2793">docker</text><rect fill="#FEFECE" filter="url(#f9q3fncneljj3)" height="40.2719" rx="12.5" ry="12.5" style="stroke: #A80036; stroke-width: 1.5;" width="96" x="125" y="140.5438"/><text fill="#000000" font-family="sans-serif" font-size="14" lengthAdjust="spacingAndGlyphs" textLength="76" x="135" y="166.7838">docker 操作</text><rect fill="#FEFECE" filter="url(#f9q3fncneljj3)" height="40.2719" rx="12.5" ry="12.5" style="stroke: #A80036; stroke-width: 1.5;" width="64" x="271" y="20"/><text fill="#000000" font-family="sans-serif" font-size="14" lengthAdjust="spacingAndGlyphs" textLength="44" x="281" y="46.2399">search</text><text fill="#000000" font-family="sans-serif" font-size="14" lengthAdjust="spacingAndGlyphs" textLength="179" x="388" y="35.104">docker search 命令进行查找</text><path d="M335,40.136 L345,40.136 C360,40.136 360,29 375,29 L385,29 " fill="none" style="stroke: #A80036; stroke-width: 1.0;"/><text fill="#000000" font-family="sans-serif" font-size="14" lengthAdjust="spacingAndGlyphs" textLength="260" x="388" y="57.3759">docker + 镜像名字搜索对应的docker hub</text><path d="M335,40.136 L345,40.136 C360,40.136 360,51.2719 375,51.2719 L385,51.2719 " fill="none" style="stroke: #A80036; stroke-width: 1.0;"/><path d="M221,160.6798 L231,160.6798 C246,160.6798 246,40.136 261,40.136 L271,40.136 " fill="none" style="stroke: #A80036; stroke-width: 1.0;"/><rect fill="#FEFECE" filter="url(#f9q3fncneljj3)" height="40.2719" rx="12.5" ry="12.5" style="stroke: #A80036; stroke-width: 1.5;" width="46" x="271" y="80.2719"/><text fill="#000000" font-family="sans-serif" font-size="14" lengthAdjust="spacingAndGlyphs" textLength="26" x="281" y="106.5118">pull</text><text fill="#000000" font-family="sans-serif" font-size="14" lengthAdjust="spacingAndGlyphs" textLength="203" x="370" y="95.3759">docker pull 拉对应的镜像到本地</text><path d="M317,100.4079 L327,100.4079 C342,100.4079 342,89.2719 357,89.2719 L367,89.2719 " fill="none" style="stroke: #A80036; stroke-width: 1.0;"/><text fill="#000000" font-family="sans-serif" font-size="14" lengthAdjust="spacingAndGlyphs" textLength="70" x="370" y="117.6478">注意版本号</text><path d="M317,100.4079 L327,100.4079 C342,100.4079 342,111.5438 357,111.5438 L367,111.5438 " fill="none" style="stroke: #A80036; stroke-width: 1.0;"/><path d="M221,160.6798 L231,160.6798 C246,160.6798 246,100.4079 261,100.4079 L271,100.4079 " fill="none" style="stroke: #A80036; stroke-width: 1.0;"/><rect fill="#FEFECE" filter="url(#f9q3fncneljj3)" height="40.2719" rx="12.5" ry="12.5" style="stroke: #A80036; stroke-width: 1.5;" width="43" x="271" y="140.5438"/><text fill="#000000" font-family="sans-serif" font-size="14" lengthAdjust="spacingAndGlyphs" textLength="23" x="281" y="166.7838">run</text><rect fill="#FEFECE" filter="url(#f9q3fncneljj3)" height="40.2719" rx="12.5" ry="12.5" style="stroke: #A80036; stroke-width: 1.5;" width="62" x="364" y="140.5438"/><text fill="#000000" font-family="sans-serif" font-size="14" lengthAdjust="spacingAndGlyphs" textLength="42" x="374" y="166.7838">不退出</text><text fill="#000000" font-family="sans-serif" font-size="14" lengthAdjust="spacingAndGlyphs" textLength="157" x="479" y="166.7838">docker run -dit &lt;image&gt;</text><path d="M426,160.6798 L436,160.6798 C451,160.6798 451,160.6798 466,160.6798 L476,160.6798 " fill="none" style="stroke: #A80036; stroke-width: 1.0;"/><path d="M314,160.6798 L324,160.6798 C339,160.6798 339,160.6798 354,160.6798 L364,160.6798 " fill="none" style="stroke: #A80036; stroke-width: 1.0;"/><path d="M221,160.6798 L231,160.6798 C246,160.6798 246,160.6798 261,160.6798 L271,160.6798 " fill="none" style="stroke: #A80036; stroke-width: 1.0;"/><rect fill="#FEFECE" filter="url(#f9q3fncneljj3)" height="40.2719" rx="12.5" ry="12.5" style="stroke: #A80036; stroke-width: 1.5;" width="48" x="271" y="230.9517"/><text fill="#000000" font-family="sans-serif" font-size="14" lengthAdjust="spacingAndGlyphs" textLength="28" x="281" y="257.1916">删除</text><rect fill="#FEFECE" filter="url(#f9q3fncneljj3)" height="40.2719" rx="12.5" ry="12.5" style="stroke: #A80036; stroke-width: 1.5;" width="76" x="369" y="200.8157"/><text fill="#000000" font-family="sans-serif" font-size="14" lengthAdjust="spacingAndGlyphs" textLength="56" x="379" y="227.0557">删除容器</text><text fill="#000000" font-family="sans-serif" font-size="14" lengthAdjust="spacingAndGlyphs" textLength="236" x="498" y="227.0557">docker rm [docker id | docker name]</text><path d="M445,220.9517 L455,220.9517 C470,220.9517 470,220.9517 485,220.9517 L495,220.9517 " fill="none" style="stroke: #A80036; stroke-width: 1.0;"/><path d="M319,251.0876 L329,251.0876 C344,251.0876 344,220.9517 359,220.9517 L369,220.9517 " fill="none" style="stroke: #A80036; stroke-width: 1.0;"/><rect fill="#FEFECE" filter="url(#f9q3fncneljj3)" height="40.2719" rx="12.5" ry="12.5" style="stroke: #A80036; stroke-width: 1.5;" width="76" x="369" y="261.0876"/><text fill="#000000" font-family="sans-serif" font-size="14" lengthAdjust="spacingAndGlyphs" textLength="56" x="379" y="287.3276">删除镜像</text><text fill="#000000" font-family="sans-serif" font-size="14" lengthAdjust="spacingAndGlyphs" textLength="241" x="498" y="287.3276">docker rmi [docker image name: tag]</text><path d="M445,281.2236 L455,281.2236 C470,281.2236 470,281.2236 485,281.2236 L495,281.2236 " fill="none" style="stroke: #A80036; stroke-width: 1.0;"/><path d="M319,251.0876 L329,251.0876 C344,251.0876 344,281.2236 359,281.2236 L369,281.2236 " fill="none" style="stroke: #A80036; stroke-width: 1.0;"/><path d="M221,160.6798 L231,160.6798 C246,160.6798 246,251.0876 261,251.0876 L271,251.0876 " fill="none" style="stroke: #A80036; stroke-width: 1.0;"/><path d="M75,416.1753 L85,416.1753 C100,416.1753 100,160.6798 115,160.6798 L125,160.6798 " fill="none" style="stroke: #A80036; stroke-width: 1.0;"/><rect fill="#FEFECE" filter="url(#f9q3fncneljj3)" height="40.2719" rx="12.5" ry="12.5" style="stroke: #A80036; stroke-width: 1.5;" width="96" x="125" y="441.9034"/><text fill="#000000" font-family="sans-serif" font-size="14" lengthAdjust="spacingAndGlyphs" textLength="76" x="135" y="468.1433">docker 管理</text><rect fill="#FEFECE" filter="url(#f9q3fncneljj3)" height="40.2719" rx="12.5" ry="12.5" style="stroke: #A80036; stroke-width: 1.5;" width="115" x="271" y="321.3596"/><text fill="#000000" font-family="sans-serif" font-size="14" lengthAdjust="spacingAndGlyphs" textLength="95" x="281" y="347.5995">docker system</text><path d="M221,462.0393 L231,462.0393 C246,462.0393 246,341.4955 261,341.4955 L271,341.4955 " fill="none" style="stroke: #A80036; stroke-width: 1.0;"/><rect fill="#FEFECE" filter="url(#f9q3fncneljj3)" height="40.2719" rx="12.5" ry="12.5" style="stroke: #A80036; stroke-width: 1.5;" width="108" x="271" y="381.6315"/><text fill="#000000" font-family="sans-serif" font-size="14" lengthAdjust="spacingAndGlyphs" textLength="88" x="281" y="407.8714">docker prune</text><path d="M221,462.0393 L231,462.0393 C246,462.0393 246,401.7674 261,401.7674 L271,401.7674 " fill="none" style="stroke: #A80036; stroke-width: 1.0;"/><rect fill="#FEFECE" filter="url(#f9q3fncneljj3)" height="40.2719" rx="12.5" ry="12.5" style="stroke: #A80036; stroke-width: 1.5;" width="50" x="271" y="441.9034"/><text fill="#000000" font-family="sans-serif" font-size="14" lengthAdjust="spacingAndGlyphs" textLength="30" x="281" y="468.1433">start</text><path d="M221,462.0393 L231,462.0393 C246,462.0393 246,462.0393 261,462.0393 L271,462.0393 " fill="none" style="stroke: #A80036; stroke-width: 1.0;"/><rect fill="#FEFECE" filter="url(#f9q3fncneljj3)" height="40.2719" rx="12.5" ry="12.5" style="stroke: #A80036; stroke-width: 1.5;" width="63" x="271" y="502.1753"/><text fill="#000000" font-family="sans-serif" font-size="14" lengthAdjust="spacingAndGlyphs" textLength="43" x="281" y="528.4152">restart</text><path d="M221,462.0393 L231,462.0393 C246,462.0393 246,522.3112 261,522.3112 L271,522.3112 " fill="none" style="stroke: #A80036; stroke-width: 1.0;"/><rect fill="#FEFECE" filter="url(#f9q3fncneljj3)" height="40.2719" rx="12.5" ry="12.5" style="stroke: #A80036; stroke-width: 1.5;" width="49" x="271" y="562.4472"/><text fill="#000000" font-family="sans-serif" font-size="14" lengthAdjust="spacingAndGlyphs" textLength="29" x="281" y="588.6871">stop</text><path d="M221,462.0393 L231,462.0393 C246,462.0393 246,582.5832 261,582.5832 L271,582.5832 " fill="none" style="stroke: #A80036; stroke-width: 1.0;"/><path d="M75,416.1753 L85,416.1753 C100,416.1753 100,462.0393 115,462.0393 L125,462.0393 " fill="none" style="stroke: #A80036; stroke-width: 1.0;"/><rect fill="#FEFECE" filter="url(#f9q3fncneljj3)" height="40.2719" rx="12.5" ry="12.5" style="stroke: #A80036; stroke-width: 1.5;" width="96" x="125" y="667.2629"/><text fill="#000000" font-family="sans-serif" font-size="14" lengthAdjust="spacingAndGlyphs" textLength="76" x="135" y="693.5029">docker 制作</text><rect fill="#FEFECE" filter="url(#f9q3fncneljj3)" height="40.2719" rx="12.5" ry="12.5" style="stroke: #A80036; stroke-width: 1.5;" width="89" x="271" y="637.127"/><text fill="#000000" font-family="sans-serif" font-size="14" lengthAdjust="spacingAndGlyphs" textLength="69" x="281" y="663.3669">docker file</text><text fill="#000000" font-family="sans-serif" font-size="14" lengthAdjust="spacingAndGlyphs" textLength="98" x="413" y="629.959">FROM:基础镜像</text><path d="M360,657.2629 L370,657.2629 C385,657.2629 385,623.8551 400,623.8551 L410,623.8551 " fill="none" style="stroke: #A80036; stroke-width: 1.0;"/><text fill="#000000" font-family="sans-serif" font-size="14" lengthAdjust="spacingAndGlyphs" textLength="92" x="413" y="652.231">RUN: 运行命令</text><path d="M360,657.2629 L370,657.2629 C385,657.2629 385,646.127 400,646.127 L410,646.127 " fill="none" style="stroke: #A80036; stroke-width: 1.0;"/><text fill="#000000" font-family="sans-serif" font-size="14" lengthAdjust="spacingAndGlyphs" textLength="98" x="413" y="674.5029">COPY: 拷贝文件</text><path d="M360,657.2629 L370,657.2629 C385,657.2629 385,668.3989 400,668.3989 L410,668.3989 " fill="none" style="stroke: #A80036; stroke-width: 1.0;"/><text fill="#000000" font-family="sans-serif" font-size="14" lengthAdjust="spacingAndGlyphs" textLength="93" x="413" y="696.7748">CMD: 启动脚本</text><path d="M360,657.2629 L370,657.2629 C385,657.2629 385,690.6708 400,690.6708 L410,690.6708 " fill="none" style="stroke: #A80036; stroke-width: 1.0;"/><path d="M221,687.3989 L231,687.3989 C246,687.3989 246,657.2629 261,657.2629 L271,657.2629 " fill="none" style="stroke: #A80036; stroke-width: 1.0;"/><rect fill="#FEFECE" filter="url(#f9q3fncneljj3)" height="40.2719" rx="12.5" ry="12.5" style="stroke: #A80036; stroke-width: 1.5;" width="103" x="271" y="711.8068"/><text fill="#000000" font-family="sans-serif" font-size="14" lengthAdjust="spacingAndGlyphs" textLength="83" x="281" y="738.0467">docker build</text><text fill="#000000" font-family="sans-serif" font-size="14" lengthAdjust="spacingAndGlyphs" textLength="484" x="427" y="726.9107">docker build -f /docker/p3_web/Dockerfile -t linchuan/p3-web /data/code</text><path d="M374,731.9427 L384,731.9427 C399,731.9427 399,720.8068 414,720.8068 L424,720.8068 " fill="none" style="stroke: #A80036; stroke-width: 1.0;"/><text fill="#000000" font-family="sans-serif" font-size="14" lengthAdjust="spacingAndGlyphs" textLength="255" x="427" y="749.1826">docker build [选项] &lt;上下文路径/URL/-&gt;</text><path d="M374,731.9427 L384,731.9427 C399,731.9427 399,743.0787 414,743.0787 L424,743.0787 " fill="none" style="stroke: #A80036; stroke-width: 1.0;"/><path d="M221,687.3989 L231,687.3989 C246,687.3989 246,731.9427 261,731.9427 L271,731.9427 " fill="none" style="stroke: #A80036; stroke-width: 1.0;"/><path d="M75,416.1753 L85,416.1753 C100,416.1753 100,687.3989 115,687.3989 L125,687.3989 " fill="none" style="stroke: #A80036; stroke-width: 1.0;"/><rect fill="#FEFECE" filter="url(#f9q3fncneljj3)" height="40.2719" rx="12.5" ry="12.5" style="stroke: #A80036; stroke-width: 1.5;" width="96" x="125" y="772.0787"/><text fill="#000000" font-family="sans-serif" font-size="14" lengthAdjust="spacingAndGlyphs" textLength="76" x="135" y="798.3186">docker 编排</text><rect fill="#FEFECE" filter="url(#f9q3fncneljj3)" height="40.2719" rx="12.5" ry="12.5" style="stroke: #A80036; stroke-width: 1.5;" width="130" x="271" y="772.0787"/><text fill="#000000" font-family="sans-serif" font-size="14" lengthAdjust="spacingAndGlyphs" textLength="110" x="281" y="798.3186">docker-compose</text><path d="M221,792.2146 L231,792.2146 C246,792.2146 246,792.2146 261,792.2146 L271,792.2146 " fill="none" style="stroke: #A80036; stroke-width: 1.0;"/><path d="M75,416.1753 L85,416.1753 C100,416.1753 100,792.2146 115,792.2146 L125,792.2146 " fill="none" style="stroke: #A80036; stroke-width: 1.0;"/><!--MD5=[8616f162ab101bc6d9d64318a358950c]
@startmindmap
* docker
** docker 操作
*** search
****_ docker search 命令进行查找
****_ docker + 镜像名字搜索对应的docker hub
*** pull
****_ docker pull 拉对应的镜像到本地
****_ 注意版本号
*** run
**** 不退出
*****_ docker run -dit <image>
*** 删除
**** 删除容器
*****_ docker rm [docker id | docker name]
**** 删除镜像
*****_ docker rmi [docker image name: tag]
** docker 管理
*** docker system
*** docker prune
*** start
*** restart
*** stop
** docker 制作
*** docker file
****_ FROM:基础镜像
****_ RUN: 运行命令
****_ COPY: 拷贝文件
****_ CMD: 启动脚本
*** docker build
****_ docker build -f ~/docker/p3_web/Dockerfile -t linchuan/p3-web /data/code
****_ docker build [选项] <上下文路径/URL/->
** docker 编排
*** docker-compose

@endmindmap

PlantUML version 1.2020.06(Sun Apr 05 20:38:32 CST 2020)
(GPL source distribution)
Java Runtime: OpenJDK Runtime Environment
JVM: OpenJDK 64-Bit Server VM
Java Version: 11.0.6+10-post-Ubuntu-1ubuntu119.10.1
Operating System: Linux
Default Encoding: UTF-8
Language: en
Country: US
--></g></svg>