<?xml version="1.0" encoding="UTF-8" standalone="no"?><svg xmlns="http://www.w3.org/2000/svg" xmlns:xlink="http://www.w3.org/1999/xlink" contentScriptType="application/ecmascript" contentStyleType="text/css" height="686px" preserveAspectRatio="none" style="width:772px;height:686px;" version="1.1" viewBox="0 0 772 686" width="772px" zoomAndPan="magnify"><defs><filter height="300%" id="f4ycuj94n0cck" width="300%" x="-1" y="-1"><feGaussianBlur result="blurOut" stdDeviation="2.0"/><feColorMatrix in="blurOut" result="blurOut2" type="matrix" values="0 0 0 0 0 0 0 0 0 0 0 0 0 0 0 0 0 0 .4 0"/><feOffset dx="4.0" dy="4.0" in="blurOut2" result="blurOut3"/><feBlend in="SourceGraphic" in2="blurOut3" mode="normal"/></filter></defs><g><rect fill="#FEFECE" filter="url(#f4ycuj94n0cck)" height="36.2969" rx="12.5" ry="12.5" style="stroke: #A80036; stroke-width: 1.5;" width="68" x="10" y="329.6328"/><text fill="#000000" font-family="sans-serif" font-size="14" lengthAdjust="spacingAndGlyphs" textLength="48" x="20" y="352.6279">docker</text><rect fill="#FEFECE" filter="url(#f4ycuj94n0cck)" height="36.2969" rx="12.5" ry="12.5" style="stroke: #A80036; stroke-width: 1.5;" width="100" x="128" y="132.5938"/><text fill="#000000" font-family="sans-serif" font-size="14" lengthAdjust="spacingAndGlyphs" textLength="80" x="138" y="155.5889">docker 操作</text><rect fill="#FEFECE" filter="url(#f4ycuj94n0cck)" height="36.2969" rx="12.5" ry="12.5" style="stroke: #A80036; stroke-width: 1.5;" width="67" x="278" y="20"/><text fill="#000000" font-family="sans-serif" font-size="14" lengthAdjust="spacingAndGlyphs" textLength="47" x="288" y="42.9951">search</text><text fill="#000000" font-family="sans-serif" font-size="14" lengthAdjust="spacingAndGlyphs" textLength="187" x="398" y="33.8467">docker search 命令进行查找</text><path d="M345,38.1484 L355,38.1484 C370,38.1484 370,29 385,29 L395,29 " fill="none" style="stroke: #A80036; stroke-width: 1.0;"/><text fill="#000000" font-family="sans-serif" font-size="14" lengthAdjust="spacingAndGlyphs" textLength="273" x="398" y="52.1436">docker + 镜像名字搜索对应的docker hub</text><path d="M345,38.1484 L355,38.1484 C370,38.1484 370,47.2969 385,47.2969 L395,47.2969 " fill="none" style="stroke: #A80036; stroke-width: 1.0;"/><path d="M228,150.7422 L238,150.7422 C253,150.7422 253,38.1484 268,38.1484 L278,38.1484 " fill="none" style="stroke: #A80036; stroke-width: 1.0;"/><rect fill="#FEFECE" filter="url(#f4ycuj94n0cck)" height="36.2969" rx="12.5" ry="12.5" style="stroke: #A80036; stroke-width: 1.5;" width="44" x="278" y="76.2969"/><text fill="#000000" font-family="sans-serif" font-size="14" lengthAdjust="spacingAndGlyphs" textLength="24" x="288" y="99.292">pull</text><text fill="#000000" font-family="sans-serif" font-size="14" lengthAdjust="spacingAndGlyphs" textLength="206" x="375" y="90.1436">docker pull 拉对应的镜像到本地</text><path d="M322,94.4453 L332,94.4453 C347,94.4453 347,85.2969 362,85.2969 L372,85.2969 " fill="none" style="stroke: #A80036; stroke-width: 1.0;"/><text fill="#000000" font-family="sans-serif" font-size="14" lengthAdjust="spacingAndGlyphs" textLength="70" x="375" y="108.4404">注意版本号</text><path d="M322,94.4453 L332,94.4453 C347,94.4453 347,103.5938 362,103.5938 L372,103.5938 " fill="none" style="stroke: #A80036; stroke-width: 1.0;"/><path d="M228,150.7422 L238,150.7422 C253,150.7422 253,94.4453 268,94.4453 L278,94.4453 " fill="none" style="stroke: #A80036; stroke-width: 1.0;"/><rect fill="#FEFECE" filter="url(#f4ycuj94n0cck)" height="36.2969" rx="12.5" ry="12.5" style="stroke: #A80036; stroke-width: 1.5;" width="43" x="278" y="132.5938"/><text fill="#000000" font-family="sans-serif" font-size="14" lengthAdjust="spacingAndGlyphs" textLength="23" x="288" y="155.5889">run</text><rect fill="#FEFECE" filter="url(#f4ycuj94n0cck)" height="36.2969" rx="12.5" ry="12.5" style="stroke: #A80036; stroke-width: 1.5;" width="62" x="371" y="132.5938"/><text fill="#000000" font-family="sans-serif" font-size="14" lengthAdjust="spacingAndGlyphs" textLength="42" x="381" y="155.5889">不退出</text><text fill="#000000" font-family="sans-serif" font-size="14" lengthAdjust="spacingAndGlyphs" textLength="171" x="486" y="155.5889">docker run -dit &lt;image&gt;</text><path d="M433,150.7422 L443,150.7422 C458,150.7422 458,150.7422 473,150.7422 L483,150.7422 " fill="none" style="stroke: #A80036; stroke-width: 1.0;"/><path d="M321,150.7422 L331,150.7422 C346,150.7422 346,150.7422 361,150.7422 L371,150.7422 " fill="none" style="stroke: #A80036; stroke-width: 1.0;"/><path d="M228,150.7422 L238,150.7422 C253,150.7422 253,150.7422 268,150.7422 L278,150.7422 " fill="none" style="stroke: #A80036; stroke-width: 1.0;"/><rect fill="#FEFECE" filter="url(#f4ycuj94n0cck)" height="36.2969" rx="12.5" ry="12.5" style="stroke: #A80036; stroke-width: 1.5;" width="48" x="278" y="217.0391"/><text fill="#000000" font-family="sans-serif" font-size="14" lengthAdjust="spacingAndGlyphs" textLength="28" x="288" y="240.0342">删除</text><rect fill="#FEFECE" filter="url(#f4ycuj94n0cck)" height="36.2969" rx="12.5" ry="12.5" style="stroke: #A80036; stroke-width: 1.5;" width="76" x="376" y="188.8906"/><text fill="#000000" font-family="sans-serif" font-size="14" lengthAdjust="spacingAndGlyphs" textLength="56" x="386" y="211.8857">删除容器</text><text fill="#000000" font-family="sans-serif" font-size="14" lengthAdjust="spacingAndGlyphs" textLength="252" x="505" y="211.8857">docker rm [docker id | docker name]</text><path d="M452,207.0391 L462,207.0391 C477,207.0391 477,207.0391 492,207.0391 L502,207.0391 " fill="none" style="stroke: #A80036; stroke-width: 1.0;"/><path d="M326,235.1875 L336,235.1875 C351,235.1875 351,207.0391 366,207.0391 L376,207.0391 " fill="none" style="stroke: #A80036; stroke-width: 1.0;"/><rect fill="#FEFECE" filter="url(#f4ycuj94n0cck)" height="36.2969" rx="12.5" ry="12.5" style="stroke: #A80036; stroke-width: 1.5;" width="76" x="376" y="245.1875"/><text fill="#000000" font-family="sans-serif" font-size="14" lengthAdjust="spacingAndGlyphs" textLength="56" x="386" y="268.1826">删除镜像</text><text fill="#000000" font-family="sans-serif" font-size="14" lengthAdjust="spacingAndGlyphs" textLength="255" x="505" y="268.1826">docker rmi [docker image name: tag]</text><path d="M452,263.3359 L462,263.3359 C477,263.3359 477,263.3359 492,263.3359 L502,263.3359 " fill="none" style="stroke: #A80036; stroke-width: 1.0;"/><path d="M326,235.1875 L336,235.1875 C351,235.1875 351,263.3359 366,263.3359 L376,263.3359 " fill="none" style="stroke: #A80036; stroke-width: 1.0;"/><path d="M228,150.7422 L238,150.7422 C253,150.7422 253,235.1875 268,235.1875 L278,235.1875 " fill="none" style="stroke: #A80036; stroke-width: 1.0;"/><path d="M78,347.7813 L88,347.7813 C103,347.7813 103,150.7422 118,150.7422 L128,150.7422 " fill="none" style="stroke: #A80036; stroke-width: 1.0;"/><rect fill="#FEFECE" filter="url(#f4ycuj94n0cck)" height="36.2969" rx="12.5" ry="12.5" style="stroke: #A80036; stroke-width: 1.5;" width="100" x="128" y="414.0781"/><text fill="#000000" font-family="sans-serif" font-size="14" lengthAdjust="spacingAndGlyphs" textLength="80" x="138" y="437.0732">docker 管理</text><rect fill="#FEFECE" filter="url(#f4ycuj94n0cck)" height="36.2969" rx="12.5" ry="12.5" style="stroke: #A80036; stroke-width: 1.5;" width="122" x="278" y="301.4844"/><text fill="#000000" font-family="sans-serif" font-size="14" lengthAdjust="spacingAndGlyphs" textLength="102" x="288" y="324.4795">docker system</text><path d="M228,432.2266 L238,432.2266 C253,432.2266 253,319.6328 268,319.6328 L278,319.6328 " fill="none" style="stroke: #A80036; stroke-width: 1.0;"/><rect fill="#FEFECE" filter="url(#f4ycuj94n0cck)" height="36.2969" rx="12.5" ry="12.5" style="stroke: #A80036; stroke-width: 1.5;" width="113" x="278" y="357.7813"/><text fill="#000000" font-family="sans-serif" font-size="14" lengthAdjust="spacingAndGlyphs" textLength="93" x="288" y="380.7764">docker prune</text><path d="M228,432.2266 L238,432.2266 C253,432.2266 253,375.9297 268,375.9297 L278,375.9297 " fill="none" style="stroke: #A80036; stroke-width: 1.0;"/><rect fill="#FEFECE" filter="url(#f4ycuj94n0cck)" height="36.2969" rx="12.5" ry="12.5" style="stroke: #A80036; stroke-width: 1.5;" width="51" x="278" y="414.0781"/><text fill="#000000" font-family="sans-serif" font-size="14" lengthAdjust="spacingAndGlyphs" textLength="31" x="288" y="437.0732">start</text><path d="M228,432.2266 L238,432.2266 C253,432.2266 253,432.2266 268,432.2266 L278,432.2266 " fill="none" style="stroke: #A80036; stroke-width: 1.0;"/><rect fill="#FEFECE" filter="url(#f4ycuj94n0cck)" height="36.2969" rx="12.5" ry="12.5" style="stroke: #A80036; stroke-width: 1.5;" width="65" x="278" y="470.375"/><text fill="#000000" font-family="sans-serif" font-size="14" lengthAdjust="spacingAndGlyphs" textLength="45" x="288" y="493.3701">restart</text><path d="M228,432.2266 L238,432.2266 C253,432.2266 253,488.5234 268,488.5234 L278,488.5234 " fill="none" style="stroke: #A80036; stroke-width: 1.0;"/><rect fill="#FEFECE" filter="url(#f4ycuj94n0cck)" height="36.2969" rx="12.5" ry="12.5" style="stroke: #A80036; stroke-width: 1.5;" width="51" x="278" y="526.6719"/><text fill="#000000" font-family="sans-serif" font-size="14" lengthAdjust="spacingAndGlyphs" textLength="31" x="288" y="549.667">stop</text><path d="M228,432.2266 L238,432.2266 C253,432.2266 253,544.8203 268,544.8203 L278,544.8203 " fill="none" style="stroke: #A80036; stroke-width: 1.0;"/><path d="M78,347.7813 L88,347.7813 C103,347.7813 103,432.2266 118,432.2266 L128,432.2266 " fill="none" style="stroke: #A80036; stroke-width: 1.0;"/><rect fill="#FEFECE" filter="url(#f4ycuj94n0cck)" height="36.2969" rx="12.5" ry="12.5" style="stroke: #A80036; stroke-width: 1.5;" width="100" x="128" y="582.9688"/><text fill="#000000" font-family="sans-serif" font-size="14" lengthAdjust="spacingAndGlyphs" textLength="80" x="138" y="605.9639">docker 制作</text><rect fill="#FEFECE" filter="url(#f4ycuj94n0cck)" height="36.2969" rx="12.5" ry="12.5" style="stroke: #A80036; stroke-width: 1.5;" width="91" x="278" y="582.9688"/><text fill="#000000" font-family="sans-serif" font-size="14" lengthAdjust="spacingAndGlyphs" textLength="71" x="288" y="605.9639">docker file</text><path d="M228,601.1172 L238,601.1172 C253,601.1172 253,601.1172 268,601.1172 L278,601.1172 " fill="none" style="stroke: #A80036; stroke-width: 1.0;"/><path d="M78,347.7813 L88,347.7813 C103,347.7813 103,601.1172 118,601.1172 L128,601.1172 " fill="none" style="stroke: #A80036; stroke-width: 1.0;"/><rect fill="#FEFECE" filter="url(#f4ycuj94n0cck)" height="36.2969" rx="12.5" ry="12.5" style="stroke: #A80036; stroke-width: 1.5;" width="100" x="128" y="639.2656"/><text fill="#000000" font-family="sans-serif" font-size="14" lengthAdjust="spacingAndGlyphs" textLength="80" x="138" y="662.2607">docker 编排</text><rect fill="#FEFECE" filter="url(#f4ycuj94n0cck)" height="36.2969" rx="12.5" ry="12.5" style="stroke: #A80036; stroke-width: 1.5;" width="138" x="278" y="639.2656"/><text fill="#000000" font-family="sans-serif" font-size="14" lengthAdjust="spacingAndGlyphs" textLength="118" x="288" y="662.2607">docker-compose</text><path d="M228,657.4141 L238,657.4141 C253,657.4141 253,657.4141 268,657.4141 L278,657.4141 " fill="none" style="stroke: #A80036; stroke-width: 1.0;"/><path d="M78,347.7813 L88,347.7813 C103,347.7813 103,657.4141 118,657.4141 L128,657.4141 " fill="none" style="stroke: #A80036; stroke-width: 1.0;"/><!--MD5=[5df6f12acff094541078a6d8326aaf41]
@startmindmap
* docker
** docker 操作
*** search
****_ docker search 命令进行查找
****_ docker + 镜像名字搜索对应的docker hub
*** pull
****_ docker pull 拉对应的镜像到本地
****_ 注意版本号
*** run
**** 不退出
*****_ docker run -dit <image>
*** 删除
**** 删除容器
*****_ docker rm [docker id | docker name]
**** 删除镜像
*****_ docker rmi [docker image name: tag]
** docker 管理
*** docker system
*** docker prune
*** start
*** restart
*** stop
** docker 制作
*** docker file
** docker 编排
*** docker-compose

@endmindmap

PlantUML version 1.2020.06(Sun Apr 05 20:38:32 CST 2020)
(GPL source distribution)
Java Runtime: OpenJDK Runtime Environment
JVM: OpenJDK 64-Bit Server VM
Java Version: 11.0.6+10-post-Ubuntu-1ubuntu119.10.1
Operating System: Linux
Default Encoding: UTF-8
Language: en
Country: US
--></g></svg>